<?xml version="1.0" encoding="UTF-8" standalone="no"?>
<!DOCTYPE svg PUBLIC "-//W3C//DTD SVG 1.1//EN" "http://www.w3.org/Graphics/SVG/1.1/DTD/svg11.dtd">
<svg width="100%" height="100%" viewBox="0 0 1404 579" version="1.1" xmlns="http://www.w3.org/2000/svg" xmlns:xlink="http://www.w3.org/1999/xlink" xml:space="preserve" xmlns:serif="http://www.serif.com/" style="fill-rule:evenodd;clip-rule:evenodd;stroke-linecap:round;stroke-linejoin:round;stroke-miterlimit:1.5;">
    <g transform="matrix(1,0,0,1,-399.579,-205.39)">
        <g transform="matrix(1.19609,0,0,1.19609,-201.935,-172.562)">
            <g id="octopus" transform="matrix(1,0,0,1,164.909,0)">
                <g id="body" transform="matrix(0.977783,-0.20962,0.20962,0.977783,52.3042,306.055)">
                    <path d="M270.333,437.364C252.098,414.883 236.643,385.036 231.627,356.502C216.067,267.994 266.567,177.146 345.572,137.164C438.585,90.093 571.691,117.035 616.879,217.572C627.323,240.81 632.489,266.16 633.445,291.554C633.704,298.449 633.665,305.362 633.343,312.254C633.009,319.426 632.165,326.566 631.481,333.713C631.278,335.824 630.537,342.142 630.683,340.026C632.51,313.67 633.671,288.582 627.825,262.533C623.985,245.422 617.712,228.84 608.857,213.683C580.613,165.34 528.749,138.479 474.317,131.851C414.374,124.552 353.536,144.156 309.507,185.609C241.797,249.358 221.57,361.201 282.464,436.274L270.333,437.364Z"/>
                    <path d="M269.034,438.417C269.385,438.849 269.928,439.079 270.482,439.029L282.614,437.939C283.229,437.884 283.764,437.494 284.005,436.925C284.245,436.356 284.152,435.701 283.763,435.221C223.418,360.825 243.554,250 310.653,186.827C354.322,145.713 414.663,126.272 474.115,133.511C528.034,140.077 579.435,166.64 607.413,214.527C616.182,229.535 622.391,245.955 626.193,262.899C632.003,288.786 630.83,313.718 629.015,339.911C628.972,340.539 629.043,340.851 629.059,340.908C629.369,341.996 630.197,342.112 630.618,342.125C630.755,342.129 632.049,342.108 632.33,340.715C632.454,340.098 632.979,335.605 633.145,333.872C633.832,326.698 634.678,319.531 635.014,312.332C635.337,305.393 635.377,298.433 635.116,291.491C634.152,265.883 628.936,240.32 618.404,216.886C572.831,115.492 438.624,88.2 344.817,135.672C265.175,175.977 214.295,267.571 229.98,356.792C235.043,385.593 250.629,415.726 269.034,438.417ZM625.496,247.411C622.942,237.437 619.585,227.672 615.353,218.257C570.552,118.579 438.546,91.987 346.327,138.656C267.958,178.316 217.839,268.418 233.274,356.213C238.192,384.188 253.253,413.431 271.074,435.618L279.225,434.886C220.162,359.167 240.771,248.027 308.361,184.392C352.751,142.599 414.085,122.833 474.519,130.192C529.465,136.882 581.79,164.041 610.301,212.84C616.671,223.743 621.719,235.376 625.496,247.411Z"/>
                </g>
                <g id="tentacles" transform="matrix(1,0,0,1,109.812,208.554)">
                    <g transform="matrix(0.977783,-0.20962,0.20962,0.977783,-51.7804,100.365)">
                        <path d="M273,436.274C273,436.274 198.155,511.918 279,520C359.845,528.082 330.607,467.635 334,436.274" style="fill:none;stroke:black;stroke-width:13.38px;"/>
                    </g>
                    <g transform="matrix(0.913035,-0.407882,0.407882,0.913035,-57.7588,172.523)">
                        <path d="M253.275,500.718C257.096,512.696 267.694,521.021 292.567,523.508C373.412,531.59 337.073,475.71 340.466,444.349" style="fill:none;stroke:black;stroke-width:13.38px;"/>
                    </g>
                    <g transform="matrix(0.769735,-0.373315,0.411085,0.847613,143.974,138.973)">
                        <path d="M245.765,502.693C248.149,509.97 252.509,516.168 259.937,520.943C267.057,525.52 277.229,528.86 291.757,530.19C322.94,532.839 338.509,526.452 345.787,516.649C348.568,512.902 350.311,508.607 351.052,503.876C351.931,498.271 351.6,492.062 350.495,485.625C349.317,478.763 347.384,471.674 345.688,464.774C343.912,457.549 342.325,450.659 342.463,444.527C342.571,443.526 341.764,442.634 340.662,442.535C339.56,442.437 338.577,443.17 338.469,444.171C336.211,456.198 339.271,472.122 339.955,486.574C340.381,495.567 340.002,503.857 335.087,509.756C332.337,513.057 328.011,515.322 321.649,516.614C314.617,518.041 305.403,518.178 293.378,516.825C284.349,515.844 277.441,514.069 272.221,511.52C265.864,508.416 262.433,504.054 260.785,498.742C259.584,494.978 255.244,492.808 251.1,493.898C246.955,494.988 244.565,498.929 245.765,502.693Z"/>
                    </g>
                    <g transform="matrix(0.92573,-0.378186,0.378186,0.92573,38.2001,121.791)">
                        <path d="M253.275,500.718C257.096,512.696 274.678,521.456 299.459,524.738C349.083,531.31 337.179,480.808 331.642,453.948" style="fill:none;stroke:black;stroke-width:13.38px;"/>
                    </g>
                </g>
                <g id="eyes" transform="matrix(1,0,0,1,109.812,208.554)">
                    <g transform="matrix(1,0,0,1,75.1112,7.20235)">
                        <circle cx="348.267" cy="291" r="15" style="stroke:black;stroke-opacity:0;stroke-width:13.38px;"/>
                    </g>
                    <g transform="matrix(0.933333,0,0,0.933333,214.207,-38.6)">
                        <circle cx="348.267" cy="291" r="15" style="stroke:black;stroke-opacity:0;stroke-width:14.33px;"/>
                    </g>
                </g>
            </g>
        </g>
        <g transform="matrix(1.19609,0,0,1.19609,-201.935,-172.562)">
            <g transform="matrix(0.836061,0,0,0.836061,971.296,294.253)">
                <g transform="matrix(200,0,0,200,43,168)">
                    <path d="M0.316,0.005C0.288,0.005 0.266,-0.003 0.249,-0.02C0.232,-0.036 0.223,-0.058 0.223,-0.085L0.223,-0.556L0.082,-0.556C0.053,-0.556 0.031,-0.562 0.017,-0.575C0.002,-0.587 -0.005,-0.606 -0.005,-0.631C-0.005,-0.656 0.002,-0.675 0.017,-0.687C0.031,-0.699 0.053,-0.705 0.082,-0.705L0.55,-0.705C0.579,-0.705 0.601,-0.699 0.616,-0.687C0.63,-0.675 0.637,-0.656 0.637,-0.631C0.637,-0.606 0.63,-0.587 0.616,-0.575C0.601,-0.562 0.579,-0.556 0.55,-0.556L0.409,-0.556L0.409,-0.085C0.409,-0.058 0.401,-0.036 0.384,-0.02C0.367,-0.003 0.344,0.005 0.316,0.005Z" style="fill-rule:nonzero;"/>
                </g>
                <g transform="matrix(200,0,0,200,179,168)">
                    <path d="M0.387,-0.504C0.444,-0.504 0.487,-0.487 0.515,-0.452C0.543,-0.417 0.557,-0.363 0.557,-0.292L0.557,-0.076C0.557,-0.051 0.549,-0.031 0.533,-0.016C0.517,-0.001 0.495,0.006 0.468,0.006C0.441,0.006 0.419,-0.001 0.403,-0.016C0.387,-0.031 0.379,-0.051 0.379,-0.076L0.379,-0.296C0.379,-0.344 0.358,-0.368 0.317,-0.368C0.29,-0.368 0.269,-0.36 0.254,-0.343C0.238,-0.326 0.23,-0.303 0.23,-0.274L0.23,-0.076C0.23,-0.051 0.222,-0.031 0.206,-0.016C0.19,-0.001 0.168,0.006 0.141,0.006C0.114,0.006 0.092,-0.001 0.076,-0.016C0.06,-0.031 0.052,-0.051 0.052,-0.076L0.052,-0.63C0.052,-0.653 0.06,-0.673 0.077,-0.688C0.094,-0.703 0.116,-0.71 0.143,-0.71C0.169,-0.71 0.19,-0.703 0.206,-0.689C0.222,-0.675 0.23,-0.656 0.23,-0.633L0.23,-0.433C0.248,-0.456 0.27,-0.474 0.297,-0.486C0.324,-0.498 0.354,-0.504 0.387,-0.504Z" style="fill-rule:nonzero;"/>
                </g>
                <g transform="matrix(200,0,0,200,300,168)">
                    <path d="M0.452,-0.158C0.467,-0.158 0.48,-0.152 0.49,-0.14C0.499,-0.128 0.504,-0.112 0.504,-0.093C0.504,-0.066 0.491,-0.046 0.465,-0.032C0.442,-0.021 0.416,-0.011 0.385,-0.004C0.354,0.004 0.325,0.008 0.299,0.008C0.244,0.008 0.197,-0.002 0.156,-0.023C0.115,-0.044 0.084,-0.073 0.062,-0.112C0.04,-0.151 0.029,-0.196 0.029,-0.248C0.029,-0.297 0.04,-0.341 0.061,-0.381C0.082,-0.42 0.111,-0.45 0.149,-0.472C0.186,-0.493 0.229,-0.504 0.276,-0.504C0.322,-0.504 0.362,-0.494 0.397,-0.474C0.432,-0.454 0.459,-0.426 0.478,-0.389C0.497,-0.352 0.506,-0.309 0.506,-0.26C0.506,-0.245 0.503,-0.233 0.496,-0.225C0.489,-0.216 0.478,-0.212 0.465,-0.212L0.201,-0.212C0.206,-0.18 0.216,-0.157 0.232,-0.143C0.248,-0.129 0.272,-0.122 0.303,-0.122C0.32,-0.122 0.335,-0.124 0.349,-0.128C0.363,-0.131 0.379,-0.136 0.396,-0.143C0.406,-0.147 0.416,-0.151 0.426,-0.154C0.435,-0.157 0.444,-0.158 0.452,-0.158ZM0.281,-0.384C0.258,-0.384 0.239,-0.377 0.225,-0.362C0.211,-0.347 0.203,-0.325 0.2,-0.296L0.357,-0.296C0.353,-0.355 0.328,-0.384 0.281,-0.384Z" style="fill-rule:nonzero;"/>
                </g>
                <g transform="matrix(200,0,0,200,43,368)">
                    <path d="M0.399,0.009C0.327,0.009 0.265,-0.006 0.212,-0.036C0.159,-0.065 0.118,-0.107 0.089,-0.162C0.06,-0.216 0.046,-0.28 0.046,-0.353C0.046,-0.426 0.06,-0.49 0.089,-0.545C0.118,-0.599 0.159,-0.641 0.212,-0.67C0.265,-0.699 0.327,-0.714 0.399,-0.714C0.471,-0.714 0.534,-0.699 0.587,-0.67C0.64,-0.641 0.68,-0.599 0.709,-0.545C0.737,-0.49 0.751,-0.426 0.751,-0.353C0.751,-0.28 0.737,-0.216 0.708,-0.162C0.679,-0.107 0.639,-0.065 0.586,-0.036C0.533,-0.006 0.47,0.009 0.399,0.009ZM0.399,-0.132C0.452,-0.132 0.494,-0.151 0.524,-0.189C0.554,-0.226 0.569,-0.281 0.569,-0.353C0.569,-0.425 0.554,-0.48 0.524,-0.517C0.493,-0.554 0.452,-0.573 0.399,-0.573C0.346,-0.573 0.304,-0.555 0.274,-0.518C0.244,-0.481 0.229,-0.426 0.229,-0.353C0.229,-0.28 0.244,-0.225 0.274,-0.188C0.304,-0.151 0.346,-0.132 0.399,-0.132Z" style="fill-rule:nonzero;"/>
                </g>
                <g transform="matrix(200,0,0,200,202.2,368)">
                    <path d="M0.289,0.008C0.209,0.008 0.146,-0.015 0.099,-0.06C0.052,-0.105 0.029,-0.167 0.029,-0.245C0.029,-0.296 0.04,-0.342 0.063,-0.381C0.086,-0.42 0.118,-0.451 0.159,-0.472C0.2,-0.493 0.246,-0.504 0.299,-0.504C0.327,-0.504 0.355,-0.5 0.383,-0.493C0.411,-0.486 0.436,-0.475 0.457,-0.462C0.478,-0.449 0.488,-0.43 0.488,-0.404C0.488,-0.383 0.483,-0.367 0.474,-0.354C0.464,-0.341 0.451,-0.334 0.436,-0.334C0.426,-0.334 0.416,-0.335 0.407,-0.339C0.398,-0.342 0.387,-0.346 0.376,-0.352C0.363,-0.358 0.351,-0.363 0.342,-0.366C0.333,-0.369 0.322,-0.37 0.311,-0.37C0.245,-0.37 0.212,-0.33 0.212,-0.249C0.212,-0.209 0.221,-0.179 0.238,-0.158C0.255,-0.136 0.279,-0.126 0.311,-0.126C0.322,-0.126 0.333,-0.128 0.343,-0.131C0.352,-0.134 0.363,-0.138 0.375,-0.144C0.388,-0.15 0.399,-0.155 0.408,-0.158C0.416,-0.161 0.425,-0.162 0.435,-0.162C0.45,-0.162 0.463,-0.156 0.473,-0.143C0.482,-0.13 0.487,-0.113 0.487,-0.092C0.487,-0.079 0.484,-0.068 0.479,-0.058C0.474,-0.047 0.466,-0.039 0.457,-0.034C0.411,-0.006 0.355,0.008 0.289,0.008Z" style="fill-rule:nonzero;"/>
                </g>
                <g transform="matrix(200,0,0,200,303.4,368)">
                    <path d="M0.343,-0.121C0.388,-0.118 0.41,-0.098 0.41,-0.061C0.41,-0.038 0.401,-0.02 0.383,-0.009C0.365,0.002 0.339,0.007 0.306,0.005L0.278,0.003C0.218,-0.002 0.173,-0.02 0.142,-0.052C0.111,-0.083 0.095,-0.127 0.095,-0.184L0.095,-0.361L0.066,-0.361C0.013,-0.361 -0.014,-0.383 -0.014,-0.427C-0.014,-0.47 0.013,-0.492 0.066,-0.492L0.095,-0.492L0.095,-0.557C0.095,-0.582 0.103,-0.603 0.119,-0.618C0.135,-0.632 0.157,-0.64 0.184,-0.64C0.211,-0.64 0.233,-0.632 0.249,-0.618C0.265,-0.603 0.273,-0.582 0.273,-0.557L0.273,-0.492L0.328,-0.492C0.381,-0.492 0.408,-0.47 0.408,-0.427C0.408,-0.383 0.381,-0.361 0.328,-0.361L0.273,-0.361L0.273,-0.169C0.273,-0.156 0.277,-0.146 0.285,-0.137C0.292,-0.128 0.302,-0.124 0.314,-0.123L0.343,-0.121Z" style="fill-rule:nonzero;"/>
                </g>
                <g transform="matrix(200,0,0,200,384.4,368)">
                    <path d="M0.3,0.008C0.246,0.008 0.199,-0.003 0.158,-0.024C0.117,-0.045 0.085,-0.074 0.063,-0.113C0.04,-0.152 0.029,-0.197 0.029,-0.249C0.029,-0.301 0.04,-0.346 0.063,-0.385C0.085,-0.423 0.116,-0.452 0.157,-0.473C0.198,-0.494 0.245,-0.504 0.3,-0.504C0.355,-0.504 0.402,-0.494 0.443,-0.473C0.484,-0.452 0.515,-0.423 0.538,-0.385C0.56,-0.346 0.571,-0.301 0.571,-0.249C0.571,-0.197 0.56,-0.152 0.538,-0.113C0.515,-0.074 0.484,-0.045 0.443,-0.024C0.402,-0.003 0.355,0.008 0.3,0.008ZM0.3,-0.125C0.363,-0.125 0.395,-0.166 0.395,-0.249C0.395,-0.332 0.363,-0.373 0.3,-0.373C0.237,-0.373 0.205,-0.332 0.205,-0.249C0.205,-0.166 0.237,-0.125 0.3,-0.125Z" style="fill-rule:nonzero;"/>
                </g>
                <g transform="matrix(200,0,0,200,504.4,368)">
                    <path d="M0.378,-0.504C0.42,-0.504 0.458,-0.493 0.491,-0.472C0.524,-0.45 0.549,-0.419 0.568,-0.38C0.586,-0.341 0.595,-0.296 0.595,-0.245C0.595,-0.194 0.586,-0.15 0.568,-0.112C0.549,-0.073 0.524,-0.044 0.491,-0.023C0.458,-0.002 0.421,0.008 0.378,0.008C0.347,0.008 0.318,0.002 0.292,-0.011C0.265,-0.024 0.245,-0.041 0.23,-0.062L0.23,0.108C0.23,0.131 0.222,0.15 0.206,0.164C0.19,0.178 0.169,0.185 0.143,0.185C0.116,0.185 0.094,0.178 0.077,0.163C0.06,0.148 0.052,0.128 0.052,0.105L0.052,-0.42C0.052,-0.445 0.06,-0.464 0.076,-0.48C0.091,-0.495 0.112,-0.502 0.139,-0.502C0.164,-0.502 0.185,-0.495 0.201,-0.482C0.216,-0.469 0.225,-0.451 0.227,-0.429C0.241,-0.452 0.262,-0.471 0.289,-0.484C0.316,-0.497 0.345,-0.504 0.378,-0.504ZM0.324,-0.125C0.355,-0.125 0.378,-0.135 0.395,-0.156C0.411,-0.177 0.419,-0.206 0.419,-0.245C0.419,-0.286 0.411,-0.317 0.394,-0.339C0.377,-0.36 0.354,-0.371 0.323,-0.371C0.292,-0.371 0.269,-0.36 0.252,-0.339C0.235,-0.318 0.227,-0.287 0.227,-0.247C0.227,-0.208 0.235,-0.178 0.252,-0.157C0.269,-0.135 0.293,-0.125 0.324,-0.125Z" style="fill-rule:nonzero;"/>
                </g>
                <g transform="matrix(200,0,0,200,629.4,368)">
                    <path d="M0.459,-0.502C0.486,-0.502 0.508,-0.495 0.524,-0.48C0.54,-0.465 0.548,-0.445 0.548,-0.42L0.548,-0.074C0.548,-0.051 0.54,-0.032 0.523,-0.017C0.506,-0.002 0.485,0.006 0.458,0.006C0.434,0.006 0.414,0 0.399,-0.014C0.384,-0.027 0.376,-0.044 0.375,-0.066C0.36,-0.042 0.34,-0.024 0.317,-0.011C0.293,0.002 0.266,0.008 0.235,0.008C0.172,0.008 0.125,-0.01 0.094,-0.045C0.063,-0.08 0.048,-0.133 0.048,-0.204L0.048,-0.42C0.048,-0.445 0.056,-0.465 0.072,-0.48C0.088,-0.495 0.11,-0.502 0.137,-0.502C0.164,-0.502 0.186,-0.495 0.202,-0.48C0.218,-0.465 0.226,-0.445 0.226,-0.42L0.226,-0.2C0.226,-0.152 0.247,-0.128 0.288,-0.128C0.312,-0.128 0.332,-0.137 0.347,-0.154C0.362,-0.171 0.37,-0.194 0.37,-0.222L0.37,-0.42C0.37,-0.445 0.378,-0.465 0.394,-0.48C0.41,-0.495 0.432,-0.502 0.459,-0.502Z" style="fill-rule:nonzero;"/>
                </g>
                <g transform="matrix(200,0,0,200,749.4,368)">
                    <path d="M0.246,0.008C0.201,0.008 0.164,0.005 0.133,-0.002C0.102,-0.009 0.075,-0.019 0.052,-0.034C0.043,-0.039 0.035,-0.047 0.03,-0.058C0.025,-0.069 0.022,-0.082 0.022,-0.096C0.022,-0.114 0.027,-0.129 0.037,-0.141C0.046,-0.152 0.058,-0.158 0.073,-0.158C0.083,-0.158 0.092,-0.157 0.101,-0.155C0.11,-0.152 0.12,-0.148 0.133,-0.143C0.154,-0.136 0.173,-0.13 0.19,-0.126C0.206,-0.122 0.227,-0.12 0.252,-0.12C0.27,-0.12 0.284,-0.123 0.295,-0.128C0.305,-0.133 0.31,-0.14 0.31,-0.149C0.31,-0.156 0.308,-0.162 0.303,-0.166C0.298,-0.17 0.288,-0.174 0.274,-0.178C0.26,-0.181 0.236,-0.186 0.203,-0.193C0.144,-0.204 0.101,-0.222 0.075,-0.245C0.048,-0.268 0.035,-0.3 0.035,-0.342C0.035,-0.373 0.045,-0.4 0.064,-0.425C0.083,-0.45 0.109,-0.469 0.142,-0.483C0.175,-0.497 0.213,-0.504 0.254,-0.504C0.284,-0.504 0.313,-0.5 0.342,-0.493C0.37,-0.486 0.395,-0.475 0.417,-0.462C0.438,-0.45 0.448,-0.431 0.448,-0.404C0.448,-0.385 0.443,-0.37 0.433,-0.357C0.423,-0.344 0.411,-0.338 0.396,-0.338C0.379,-0.338 0.358,-0.344 0.334,-0.355C0.318,-0.362 0.304,-0.368 0.292,-0.372C0.279,-0.375 0.265,-0.377 0.248,-0.377C0.231,-0.377 0.218,-0.375 0.209,-0.37C0.2,-0.365 0.195,-0.357 0.195,-0.348C0.195,-0.337 0.202,-0.329 0.215,-0.323C0.228,-0.317 0.253,-0.31 0.292,-0.303C0.357,-0.292 0.402,-0.275 0.429,-0.252C0.456,-0.229 0.469,-0.195 0.469,-0.152C0.469,-0.103 0.449,-0.065 0.409,-0.036C0.368,-0.007 0.314,0.008 0.246,0.008Z" style="fill-rule:nonzero;"/>
                </g>
                <g transform="matrix(200,0,0,200,43,568)">
                    <path d="M0.155,0.006C0.127,0.006 0.105,-0.002 0.089,-0.019C0.072,-0.035 0.064,-0.057 0.064,-0.085L0.064,-0.62C0.064,-0.647 0.071,-0.668 0.086,-0.683C0.101,-0.698 0.122,-0.705 0.149,-0.705L0.405,-0.705C0.483,-0.705 0.544,-0.685 0.587,-0.646C0.63,-0.606 0.652,-0.551 0.652,-0.48C0.652,-0.41 0.63,-0.355 0.587,-0.315C0.543,-0.275 0.482,-0.255 0.405,-0.255L0.248,-0.255L0.248,-0.085C0.248,-0.057 0.24,-0.035 0.223,-0.019C0.206,-0.002 0.184,0.006 0.155,0.006ZM0.38,-0.393C0.414,-0.393 0.439,-0.4 0.456,-0.414C0.472,-0.428 0.48,-0.45 0.48,-0.479C0.48,-0.537 0.447,-0.566 0.38,-0.566L0.248,-0.566L0.248,-0.393L0.38,-0.393Z" style="fill-rule:nonzero;"/>
                </g>
                <g transform="matrix(200,0,0,200,176.4,568)">
                    <path d="M0.364,-0.502C0.387,-0.504 0.405,-0.499 0.418,-0.487C0.431,-0.474 0.438,-0.456 0.438,-0.432C0.438,-0.405 0.432,-0.386 0.42,-0.374C0.407,-0.362 0.385,-0.354 0.353,-0.351L0.323,-0.348C0.29,-0.344 0.266,-0.334 0.252,-0.317C0.237,-0.3 0.23,-0.276 0.23,-0.247L0.23,-0.076C0.23,-0.049 0.222,-0.028 0.205,-0.015C0.188,-0.001 0.166,0.006 0.141,0.006C0.116,0.006 0.095,-0.001 0.078,-0.015C0.061,-0.028 0.052,-0.049 0.052,-0.076L0.052,-0.422C0.052,-0.447 0.061,-0.467 0.078,-0.481C0.095,-0.495 0.115,-0.502 0.139,-0.502C0.164,-0.502 0.184,-0.495 0.199,-0.482C0.214,-0.469 0.221,-0.45 0.221,-0.426L0.221,-0.407C0.232,-0.436 0.249,-0.459 0.274,-0.475C0.298,-0.491 0.323,-0.5 0.35,-0.501L0.364,-0.502Z" style="fill-rule:nonzero;"/>
                </g>
                <g transform="matrix(200,0,0,200,258.2,568)">
                    <path d="M0.3,0.008C0.246,0.008 0.199,-0.003 0.158,-0.024C0.117,-0.045 0.085,-0.074 0.063,-0.113C0.04,-0.152 0.029,-0.197 0.029,-0.249C0.029,-0.301 0.04,-0.346 0.063,-0.385C0.085,-0.423 0.116,-0.452 0.157,-0.473C0.198,-0.494 0.245,-0.504 0.3,-0.504C0.355,-0.504 0.402,-0.494 0.443,-0.473C0.484,-0.452 0.515,-0.423 0.538,-0.385C0.56,-0.346 0.571,-0.301 0.571,-0.249C0.571,-0.197 0.56,-0.152 0.538,-0.113C0.515,-0.074 0.484,-0.045 0.443,-0.024C0.402,-0.003 0.355,0.008 0.3,0.008ZM0.3,-0.125C0.363,-0.125 0.395,-0.166 0.395,-0.249C0.395,-0.332 0.363,-0.373 0.3,-0.373C0.237,-0.373 0.205,-0.332 0.205,-0.249C0.205,-0.166 0.237,-0.125 0.3,-0.125Z" style="fill-rule:nonzero;"/>
                </g>
                <g transform="matrix(200,0,0,200,378.2,568)">
                    <path d="M0.019,0.182C-0.013,0.184 -0.038,0.18 -0.057,0.169C-0.076,0.158 -0.085,0.14 -0.085,0.116C-0.085,0.097 -0.08,0.082 -0.069,0.073C-0.058,0.063 -0.041,0.057 -0.018,0.056L0.01,0.054C0.023,0.053 0.033,0.049 0.041,0.04C0.048,0.031 0.052,0.02 0.052,0.007L0.052,-0.42C0.052,-0.447 0.061,-0.468 0.078,-0.482C0.095,-0.495 0.116,-0.502 0.141,-0.502C0.166,-0.502 0.188,-0.495 0.205,-0.482C0.222,-0.468 0.23,-0.447 0.23,-0.42L0.23,-0.007C0.23,0.049 0.215,0.093 0.185,0.125C0.154,0.157 0.108,0.175 0.047,0.18L0.019,0.182ZM0.139,-0.572C0.109,-0.572 0.085,-0.58 0.068,-0.596C0.05,-0.611 0.041,-0.632 0.041,-0.658C0.041,-0.684 0.05,-0.705 0.068,-0.72C0.085,-0.735 0.109,-0.743 0.139,-0.743C0.168,-0.743 0.192,-0.735 0.21,-0.72C0.228,-0.705 0.237,-0.684 0.237,-0.658C0.237,-0.632 0.228,-0.611 0.211,-0.596C0.193,-0.58 0.169,-0.572 0.139,-0.572Z" style="fill-rule:nonzero;"/>
                </g>
                <g transform="matrix(200,0,0,200,434.4,568)">
                    <path d="M0.452,-0.158C0.467,-0.158 0.48,-0.152 0.49,-0.14C0.499,-0.128 0.504,-0.112 0.504,-0.093C0.504,-0.066 0.491,-0.046 0.465,-0.032C0.442,-0.021 0.416,-0.011 0.385,-0.004C0.354,0.004 0.325,0.008 0.299,0.008C0.244,0.008 0.197,-0.002 0.156,-0.023C0.115,-0.044 0.084,-0.073 0.062,-0.112C0.04,-0.151 0.029,-0.196 0.029,-0.248C0.029,-0.297 0.04,-0.341 0.061,-0.381C0.082,-0.42 0.111,-0.45 0.149,-0.472C0.186,-0.493 0.229,-0.504 0.276,-0.504C0.322,-0.504 0.362,-0.494 0.397,-0.474C0.432,-0.454 0.459,-0.426 0.478,-0.389C0.497,-0.352 0.506,-0.309 0.506,-0.26C0.506,-0.245 0.503,-0.233 0.496,-0.225C0.489,-0.216 0.478,-0.212 0.465,-0.212L0.201,-0.212C0.206,-0.18 0.216,-0.157 0.232,-0.143C0.248,-0.129 0.272,-0.122 0.303,-0.122C0.32,-0.122 0.335,-0.124 0.349,-0.128C0.363,-0.131 0.379,-0.136 0.396,-0.143C0.406,-0.147 0.416,-0.151 0.426,-0.154C0.435,-0.157 0.444,-0.158 0.452,-0.158ZM0.281,-0.384C0.258,-0.384 0.239,-0.377 0.225,-0.362C0.211,-0.347 0.203,-0.325 0.2,-0.296L0.357,-0.296C0.353,-0.355 0.328,-0.384 0.281,-0.384Z" style="fill-rule:nonzero;"/>
                </g>
                <g transform="matrix(200,0,0,200,541.4,568)">
                    <path d="M0.289,0.008C0.209,0.008 0.146,-0.015 0.099,-0.06C0.052,-0.105 0.029,-0.167 0.029,-0.245C0.029,-0.296 0.04,-0.342 0.063,-0.381C0.086,-0.42 0.118,-0.451 0.159,-0.472C0.2,-0.493 0.246,-0.504 0.299,-0.504C0.327,-0.504 0.355,-0.5 0.383,-0.493C0.411,-0.486 0.436,-0.475 0.457,-0.462C0.478,-0.449 0.488,-0.43 0.488,-0.404C0.488,-0.383 0.483,-0.367 0.474,-0.354C0.464,-0.341 0.451,-0.334 0.436,-0.334C0.426,-0.334 0.416,-0.335 0.407,-0.339C0.398,-0.342 0.387,-0.346 0.376,-0.352C0.363,-0.358 0.351,-0.363 0.342,-0.366C0.333,-0.369 0.322,-0.37 0.311,-0.37C0.245,-0.37 0.212,-0.33 0.212,-0.249C0.212,-0.209 0.221,-0.179 0.238,-0.158C0.255,-0.136 0.279,-0.126 0.311,-0.126C0.322,-0.126 0.333,-0.128 0.343,-0.131C0.352,-0.134 0.363,-0.138 0.375,-0.144C0.388,-0.15 0.399,-0.155 0.408,-0.158C0.416,-0.161 0.425,-0.162 0.435,-0.162C0.45,-0.162 0.463,-0.156 0.473,-0.143C0.482,-0.13 0.487,-0.113 0.487,-0.092C0.487,-0.079 0.484,-0.068 0.479,-0.058C0.474,-0.047 0.466,-0.039 0.457,-0.034C0.411,-0.006 0.355,0.008 0.289,0.008Z" style="fill-rule:nonzero;"/>
                </g>
                <g transform="matrix(200,0,0,200,642.6,568)">
                    <path d="M0.343,-0.121C0.388,-0.118 0.41,-0.098 0.41,-0.061C0.41,-0.038 0.401,-0.02 0.383,-0.009C0.365,0.002 0.339,0.007 0.306,0.005L0.278,0.003C0.218,-0.002 0.173,-0.02 0.142,-0.052C0.111,-0.083 0.095,-0.127 0.095,-0.184L0.095,-0.361L0.066,-0.361C0.013,-0.361 -0.014,-0.383 -0.014,-0.427C-0.014,-0.47 0.013,-0.492 0.066,-0.492L0.095,-0.492L0.095,-0.557C0.095,-0.582 0.103,-0.603 0.119,-0.618C0.135,-0.632 0.157,-0.64 0.184,-0.64C0.211,-0.64 0.233,-0.632 0.249,-0.618C0.265,-0.603 0.273,-0.582 0.273,-0.557L0.273,-0.492L0.328,-0.492C0.381,-0.492 0.408,-0.47 0.408,-0.427C0.408,-0.383 0.381,-0.361 0.328,-0.361L0.273,-0.361L0.273,-0.169C0.273,-0.156 0.277,-0.146 0.285,-0.137C0.292,-0.128 0.302,-0.124 0.314,-0.123L0.343,-0.121Z" style="fill-rule:nonzero;"/>
                </g>
            </g>
        </g>
    </g>
</svg>
